<?xml version="1.0" encoding="UTF-8" standalone="no"?>
<!-- Licensed as CC0 Public Domain Dedication, see https://creativecommons.org/publicdomain/zero/1.0/. -->

<svg
   xmlns:ns="http://creativecommons.org/"
   xmlns:dc="http://purl.org/dc/elements/1.1/"
   xmlns:cc="http://creativecommons.org/ns#"
   xmlns:rdf="http://www.w3.org/1999/02/22-rdf-syntax-ns#"
   xmlns:svg="http://www.w3.org/2000/svg"
   xmlns="http://www.w3.org/2000/svg"
   xmlns:sodipodi="http://sodipodi.sourceforge.net/DTD/sodipodi-0.dtd"
   xmlns:inkscape="http://www.inkscape.org/namespaces/inkscape"
   version="1.1"
   x="0px"
   y="0px"
   width="300"
   height="300"
   viewBox="0 0 300 300"
   xml:space="preserve"
   id="svg11"
   sodipodi:docname="robotbody.svg"
   inkscape:version="0.92.2 (5c3e80d, 2017-08-06)"><metadata
     id="metadata17"><rdf:RDF><ns:Work
         rdf:about=""><dc:format>image/svg+xml</dc:format><dc:type
           rdf:resource="http://purl.org/dc/dcmitype/StillImage" /></ns:Work><cc:Work
         rdf:about=""><dc:format>image/svg+xml</dc:format><dc:type
           rdf:resource="http://purl.org/dc/dcmitype/StillImage" /><dc:title /></cc:Work></rdf:RDF></metadata><defs
     id="defs15" /><sodipodi:namedview
     pagecolor="#ffffff"
     bordercolor="#666666"
     borderopacity="1"
     objecttolerance="10"
     gridtolerance="10"
     guidetolerance="10"
     inkscape:pageopacity="0"
     inkscape:pageshadow="2"
     inkscape:window-width="1676"
     inkscape:window-height="1011"
     id="namedview13"
     showgrid="false"
     inkscape:zoom="3.1484374"
     inkscape:cx="211.95091"
     inkscape:cy="155.00477"
     inkscape:window-x="61"
     inkscape:window-y="14"
     inkscape:window-maximized="1"
     inkscape:current-layer="svg11"
     showguides="true"
     inkscape:guide-bbox="true"
     inkscape:snap-center="true"
     inkscape:snap-page="true"
     inkscape:snap-global="false"><sodipodi:guide
       position="150,150"
       orientation="1,0"
       id="guide863"
       inkscape:locked="false" /><sodipodi:guide
       position="150,150"
       orientation="0,1"
       id="guide867"
       inkscape:locked="false" /></sodipodi:namedview><path
     id="robotbody"
     d="m 90.076963,98.629373 c -1.722171,23.182997 -4.125736,43.174207 -3.37657,65.769167 0.654305,19.73391 1.20812,26.00069 7.679051,47.67598 4.940063,16.54744 23.054236,25.91355 54.878556,23.84204 25.65886,-1.67019 50.62427,3.10763 65.26229,-11.26477 20.97597,3.07228 22.33436,4.02195 28.5988,-5.90513 5.06112,-8.02021 -4.86652,-25.70583 -4.67439,-28.06416 1.8289,-22.44881 0.45535,-48.92166 1.43495,-67.43271 0.34397,-6.49993 0.71044,-11.77889 -0.13547,-16.00821 -0.62564,-3.12803 79.58035,-5.79956 103.02204,-7.950261 2.83534,-0.260133 1.64171,-15.200968 -1.3124,-17.398307 -6.36177,-4.732036 -97.7142,-6.717565 -99.58437,-6.95552 -8.60673,-1.095097 -12.20048,-1.738579 -16.73092,-2.655638 -14.65718,-2.966931 -44.01833,-4.486859 -71.08318,-5.011477 -17.41683,-0.337604 -36.58726,3.557032 -50.78329,10.805313 -7.736979,3.950389 -12.417705,10.088819 -13.195097,20.553683 z"
     inkscape:connector-curvature="0"
     sodipodi:nodetypes="sssscsssssssssss"
     style="stroke-width:0.99999988" /></svg>