<?xml version="1.0" encoding="UTF-8" standalone="no"?>
<!-- Licensed as CC0 Public Domain Dedication, see https://creativecommons.org/publicdomain/zero/1.0/. -->

<svg
   xmlns:ns="http://creativecommons.org/"
   xmlns:dc="http://purl.org/dc/elements/1.1/"
   xmlns:cc="http://creativecommons.org/ns#"
   xmlns:rdf="http://www.w3.org/1999/02/22-rdf-syntax-ns#"
   xmlns:svg="http://www.w3.org/2000/svg"
   xmlns="http://www.w3.org/2000/svg"
   xmlns:sodipodi="http://sodipodi.sourceforge.net/DTD/sodipodi-0.dtd"
   xmlns:inkscape="http://www.inkscape.org/namespaces/inkscape"
   version="1.1"
   x="0px"
   y="0px"
   width="300"
   height="300"
   viewBox="0 0 300 300"
   xml:space="preserve"
   id="svg11"
   sodipodi:docname="robotbody.svg"
   inkscape:version="0.92.2 (5c3e80d, 2017-08-06)"><metadata
     id="metadata17"><rdf:RDF><ns:Work
         rdf:about=""><dc:format>image/svg+xml</dc:format><dc:type
           rdf:resource="http://purl.org/dc/dcmitype/StillImage" /></ns:Work><cc:Work
         rdf:about=""><dc:format>image/svg+xml</dc:format><dc:type
           rdf:resource="http://purl.org/dc/dcmitype/StillImage" /><dc:title /></cc:Work></rdf:RDF></metadata><defs
     id="defs15"><inkscape:tag
       id="Set 1" /></defs><sodipodi:namedview
     pagecolor="#ffffff"
     bordercolor="#666666"
     borderopacity="1"
     objecttolerance="10"
     gridtolerance="10"
     guidetolerance="10"
     inkscape:pageopacity="0"
     inkscape:pageshadow="2"
     inkscape:window-width="1920"
     inkscape:window-height="1017"
     id="namedview13"
     showgrid="false"
     inkscape:zoom="1.5742187"
     inkscape:cx="126.71354"
     inkscape:cy="152.71994"
     inkscape:window-x="-8"
     inkscape:window-y="-8"
     inkscape:window-maximized="1"
     inkscape:current-layer="svg11"
     showguides="true"
     inkscape:guide-bbox="true"
     inkscape:snap-center="true"
     inkscape:snap-page="true"
     inkscape:snap-global="false"><sodipodi:guide
       position="150,150"
       orientation="1,0"
       id="guide863"
       inkscape:locked="false" /><sodipodi:guide
       position="280.7742,149.91564"
       orientation="0,1"
       id="guide867"
       inkscape:locked="false" /></sodipodi:namedview><path
     style="stroke-width:1.0479027"
     d="M 112.55273 57.140625 C 84.613201 56.953665 55.086915 65.724526 35.34375 88.318359 C 2.4794176 125.92789 1.9271657 177.15488 34.689453 213.20312 C 65.268366 246.8491 139.7041 256.31259 176.22852 224.31445 C 199.21298 227.71606 200.6884 228.68704 207.7168 218.85938 C 213.39515 210.91947 202.76312 193.07968 203.00977 190.72461 C 206.18203 160.43494 205.37054 123.26494 202.04297 106.94141 C 201.67768 105.14946 204.67682 102.21351 207.58203 98.642578 A 70.19355 17.468983 0 0 0 256.95312 103.71289 A 70.19355 17.468983 0 0 0 327.14648 86.244141 A 70.19355 17.468983 0 0 0 256.95312 68.773438 A 70.19355 17.468983 0 0 0 195.70508 77.724609 C 189.42898 79.56098 184.11839 84.032647 182.66406 82.320312 C 170.2387 67.690441 142.29482 57.339647 112.55273 57.140625 z "
     id="robotbody" /></svg>